<svg enable-background="new 0 0 32 32" viewBox="0 0 32 32" xmlns="http://www.w3.org/2000/svg">
    <path
        d="m31 16.14h-11.618c.62-1.25.978-2.653.978-4.14 0-5.161-4.199-9.36-9.36-9.36s-9.36 4.199-9.36 9.36c0 5.04 4.006 9.151 9 9.342v6.658c0 .199.161.36.36.36h20c.199 0 .36-.161.36-.36v-11.5c0-.199-.161-.36-.36-.36zm-.36 2.963c-1.166-.161-2.082-1.078-2.243-2.243h2.243zm-2.964-2.243c.169 1.562 1.402 2.794 2.964 2.964v4.852c-1.561.17-2.794 1.402-2.964 2.964h-13.353c-.17-1.562-1.402-2.794-2.964-2.964v-3.334c3.24-.124 6.057-1.898 7.64-4.508v.026zm-25.298-4.5h3.771c.026 1.362.195 2.638.481 3.78h-3.21c-.62-1.13-.985-2.416-1.042-3.78zm17.243-.72h-3.771c-.026-1.362-.195-2.638-.481-3.78h3.211c.62 1.13.985 2.416 1.041 3.78zm-5.224 5.22c-.689 2.066-1.794 3.504-3.037 3.74v-3.74zm-3.037-.72v-3.78h3.771c-.028 1.356-.211 2.643-.517 3.78zm3.808.72h2.97c-1.15 1.683-2.881 2.933-4.9 3.475.804-.787 1.47-1.991 1.93-3.475zm3.412-.72h-3.21c.286-1.142.455-2.419.481-3.78h3.771c-.057 1.364-.422 2.65-1.042 3.78zm-3.449-4.5h-3.771v-3.78h3.254c.306 1.137.489 2.424.517 3.78zm-3.771-4.5v-3.741c1.243.236 2.348 1.675 3.038 3.741zm-.72-3.741v3.741h-3.037c.689-2.066 1.794-3.505 3.037-3.741zm0 4.461v3.78h-3.771c.028-1.356.211-2.643.517-3.78zm-4.491 3.78h-3.771c.057-1.364.422-2.65 1.042-3.78h3.211c-.287 1.142-.456 2.419-.482 3.78zm.72.72h3.771v3.78h-3.254c-.306-1.137-.489-2.424-.517-3.78zm3.771 4.5v3.74c-1.243-.236-2.348-1.674-3.037-3.74zm7.498-9.72h-2.97c-.461-1.484-1.127-2.689-1.932-3.476 2.02.543 3.752 1.792 4.902 3.476zm-9.374-3.476c-.805.787-1.472 1.992-1.932 3.476h-2.97c1.15-1.684 2.882-2.933 4.902-3.476zm-4.902 13.196h2.97c.46 1.484 1.126 2.688 1.931 3.475-2.02-.542-3.751-1.792-4.901-3.475zm7.498 8.537c1.165.161 2.082 1.077 2.244 2.243h-2.244zm17.037 2.243c.161-1.165 1.077-2.082 2.243-2.243v2.243zm-22.397-3h3v.721h-3zm-3.13 0h2.13v.721h-2.13l1.385 1.385-.509.51-2.255-2.256 2.255-2.255.509.51zm22.13-16.78h-3v-.72h3zm4.131 0h-2.381v-.72h2.381l-1.386-1.386.51-.509 2.254 2.255-2.254 2.254-.51-.509zm-10.991 14.64c0 1.577 1.283 2.86 2.86 2.86s2.86-1.283 2.86-2.86-1.283-2.86-2.86-2.86-2.86 1.283-2.86 2.86zm2.86-2.14c1.18 0 2.14.96 2.14 2.14s-.96 2.14-2.14 2.14-2.14-.96-2.14-2.14.96-2.14 2.14-2.14z" />
    <path d="m0 0h32v32h-32z" fill="none" />
</svg>